<svg fill="none" version="1.1" width="81" height="81" viewBox="0 0 81 81" xmlns="http://www.w3.org/2000/svg" >
<path d="m36.597 67h-26.597c-2.7614 0-5-2.2386-5-5v-3.5m66.111 8.5c2.1478 0 3.8889-1.7411 3.8889-3.8889v-4.6111m-70 0v-36.5c0-2.7614 2.2386-5 5-5h60c2.7614 0 5 2.2386 5 5v36.5m-70 0h31.597m38.403 0h-3.8889" stroke="#F14D34" stroke-width="2.5"/>
<path d="m41.757 25.102h25" stroke="#f14d34" stroke-width="2.5"/>
<path d="m41.757 29.602h25" stroke="#f14d34" stroke-width="2.5"/>
<path d="m41.757 33.602h25" stroke="#f14d34" stroke-width="2.5"/>
<path d="m11 44h21" stroke="#F14D34" stroke-width="2.5"/>
<path d="m11 52h21" stroke="#F14D34" stroke-width="2.5"/>
<path d="m11 48h14" stroke="#F14D34" stroke-width="2.5"/>
<path d="m32 67v9" stroke="#F14D34" stroke-width="2.5"/>
<path d="M37 76H23" stroke="#F14D34" stroke-width="2.5"/>
<rect x="37.551" y="38.675" width="32.199" height="36.075" rx="3.75" stroke="#f14d34" stroke-width="2.5"/>
<path d="m11.041 25.483h25" stroke="#f14d34" stroke-width="2.5"/>
<path d="m11.041 29.983h25" stroke="#f14d34" stroke-width="2.5"/>
<path d="m11.041 33.983h25" stroke="#f14d34" stroke-width="2.5"/>
<path d="m11.041 37.983h10" stroke="#f14d34" stroke-width="2.5"/>
<path d="m41.742 44.53h25" stroke="#f14d34" stroke-width="2.5"/>
<path d="m41.742 49.03h19" stroke="#f14d34" stroke-width="2.5"/>
<path d="m41.742 53.03h15" stroke="#f14d34" stroke-width="2.5"/>
<path d="m41.499 59.577h19" stroke="#f14d34" stroke-width="2.5"/>
<path d="m41.499 64.077h15" stroke="#f14d34" stroke-width="2.5"/>
<rect x="60.243" y="51.735" width="18.001" height="27.383" rx="3.75" fill="#fff" stroke="#050c33" stroke-width="2.5"/>
<path d="m64.449 57.26h10" stroke="#050c33" stroke-width="2.5"/>
<path d="m41.499 68.077h11" stroke="#f14d34" stroke-width="2.5"/>
<path d="m64.41 61.585h10" stroke="#050c33" stroke-width="2.5"/>
<path d="m64.289 65.953h10" stroke="#050c33" stroke-width="2.5"/>
</svg>
