<svg fill="none" version="1.1" width="81" height="81" viewBox="0 0 81 81" xmlns="http://www.w3.org/2000/svg" >
<path d="m7 16.276h47v-3.2759c0-2.7614-2.2386-5-5-5h-38c-2.7614 0-5 2.2386-5 5v33.034c0 2.7614 2.2386 5 5 5h38c2.7614 0 5-2.2385 5-4.9999v-2.5346" stroke="#f14d34" stroke-width="2.5"/>
<path d="m26 51.517v16.517c0 2.7614 2.2386 5 5 5h38c2.7614 0 5-2.2386 5-5v-33.034c0-2.7614-2.2386-5-5-5h-7m12 8.2759h-10" stroke="#f14d34" stroke-width="2.5"/>
<path d="m10.457 12.552h2.0571" stroke="#F14D34" stroke-width="2.5"/>
<path d="m14.571 12.552h2.0571" stroke="#F14D34" stroke-width="2.5"/>
<path d="m18.686 12.552h2.0571" stroke="#F14D34" stroke-width="2.5"/>
<path d="m13 36h15" stroke="#F14D34" stroke-width="2.5"/>
<path d="m13 40h8" stroke="#F14D34" stroke-width="2.5"/>
<rect x="14.25" y="23.25" width="12.5" height="8.5" rx="3.75" stroke="#F14D34" stroke-width="2.5"/>
<path d="m54 16.276c-0.90588 0-1.6471 0.7875-1.6471 1.75 0 0.05209 0.01023 0.09501 0.01448 0.14355-5.7474 0.95801-6.5813 7.0356-7.2622 12.019-0.74118 5.425-1.317 8.8372-5.1052 8.8372v1.75h9.9628c0.37293 2.0175 2.0145 3.5 4.0372 3.5s3.6643-1.4825 4.0372-3.5h9.9628v-1.75c-3.7882 0-4.3657-3.4122-5.1068-8.8372-0.68082-4.9832-1.5146-11.06-7.2606-12.019 0.0043-0.04855 0.01448-0.09147 0.01448-0.14355 0-0.9625-0.74118-1.75-1.6471-1.75zm0 3.5c5.8471 0 6.5049 5.1622 7.2461 10.587 0.42992 3.1976 0.90487 6.6457 2.6636 8.6628h-19.819c1.7587-2.0172 2.2321-5.4653 2.662-8.6628 0.74118-5.425 1.4006-10.587 7.2477-10.587zm-2.3274 21h4.6533c-0.32862 1.0332-1.2188 1.75-2.3258 1.75s-1.9988-0.71683-2.3274-1.75z" fill="#050c33" stroke="#050c33" stroke-width=".84887"/>
<path d="m60.235 51.884c-0.50924 0-0.94125 0.36522-1.0255 0.86743l-0.20365 1.1941c-0.39334 0.12292-0.77615 0.28444-1.1414 0.48112l-0.9658-0.69533c-0.1756-0.12643-0.38636-0.19316-0.6041-0.19316-0.27744 0-0.54079 0.10884-0.73395 0.30552l-1.0501 1.0466c-0.35822 0.35822-0.40743 0.92364-0.11242 1.3381l0.7024 0.98685c-0.19316 0.36876-0.34765 0.7516-0.46705 1.1485l-1.166 0.19666c-0.50221 0.08429-0.86743 0.51623-0.86743 1.0255v1.4785c0 0.50924 0.36522 0.94125 0.86743 1.0255l1.1941 0.20365c0.12292 0.39334 0.28451 0.77615 0.48118 1.1414l-0.6919 0.96229c-0.29501 0.41441-0.24931 0.97982 0.11242 1.3381l1.0465 1.0466c0.19667 0.19667 0.45657 0.30552 0.73402 0.30552 0.21774 0 0.42494-0.06674 0.60054-0.19316l0.98692-0.7024c0.35471 0.18614 0.72697 0.33715 1.1098 0.45656l0.19666 1.1801c0.08429 0.50222 0.51623 0.86744 1.0255 0.86744h1.4821c0.50924 0 0.94118-0.36522 1.0255-0.86744l0.20022-1.1801c0.39685-0.12292 0.77965-0.28096 1.1449-0.47412l0.97279 0.6954c0.1756 0.12643 0.38636 0.19316 0.6041 0.19316 0.27745 0 0.53728-0.10884 0.73395-0.30552l1.0466-1.0466c0.35822-0.35822 0.40736-0.92364 0.11235-1.3381l-0.69533-0.97635c0.19316-0.36876 0.35471-0.75155 0.47412-1.1449l1.18-0.19666c0.50221-0.08429 0.86743-0.5163 0.86743-1.0255v-1.4785c7e-3 -0.50924-0.35822-0.94118-0.86043-1.0255l-1.18-0.20022c-0.12292-0.39685-0.28096-0.77964-0.47412-1.1449l0.6954-0.97279c0.29501-0.41441 0.24931-0.97983-0.11242-1.3381l-1.0465-1.0466c-0.19667-0.19667-0.45657-0.30552-0.73402-0.30552-0.21774 0-0.42494 0.06673-0.60054 0.19316l-0.97636 0.69533c-0.3793-0.20018-0.77611-0.36526-1.187-0.48818l-0.19672-1.166c-0.08429-0.50221-0.51623-0.86743-1.0255-0.86743zm7e-3 0.94467h1.4785c0.04565 0 0.08434 0.03165 0.09137 0.07731l0.24584 1.4645c0.03161 0.18613 0.16858 0.33716 0.3512 0.38282 0.53031 0.13346 1.036 0.34065 1.5066 0.6181 0.16155 0.09482 0.36177 0.08781 0.5163-0.02107l1.2116-0.871c0.01755-0.01056 0.03513-0.01755 0.05267-0.01755 0.01405 0 0.04216 0.0035 0.06674 0.02812l1.0465 1.0466c0.03161 0.03161 0.03515 0.08072 0.01056 0.11935l-0.8675 1.2187c-0.10887 0.15101-0.11589 0.35468-0.02106 0.51623 0.27393 0.46007 0.47764 0.95527 0.6111 1.4715 0.04566 0.18262 0.1967 0.3196 0.37932 0.3477l1.475 0.24934c0.04565 7e-3 0.07724 0.04564 0.07724 0.0913v1.4785h-0.0035c0 0.04565-0.03165 0.08434-0.07731 0.09137l-1.475 0.24584c-0.18614 0.03161-0.3336 0.16852-0.37925 0.34763-0.13346 0.51626-0.33716 1.0115-0.6111 1.4715-0.09483 0.16155-0.08781 0.36177 0.02106 0.5163l0.8675 1.2221c0.02459 0.03512 0.02103 0.08781-0.01056 0.11942l-1.0466 1.0466c-0.02459 0.02461-0.04912 0.02803-0.06667 0.02803-0.02108 0-0.03864-7e-3 -0.05267-0.01759l-1.2187-0.86743c-0.15101-0.10888-0.35468-0.11588-0.51623-0.02107-0.46007 0.27394-0.95527 0.47758-1.4715 0.61103-0.18262 0.04568-0.3196 0.1967-0.3477 0.37932l-0.24934 1.475c-7e-3 0.04568-0.04564 0.07724-0.0913 0.07724h-1.4785c-0.04566 0-0.08434-0.03157-0.09137-0.07724l-0.24583-1.475c-0.03161-0.18614-0.16852-0.33367-0.34763-0.37932-0.50221-0.12994-0.98687-0.33008-1.4399-0.58997-0.07375-0.04213-0.15807-0.06327-0.23884-0.06327-0.09483 0-0.19319 0.0281-0.27396 0.0878l-1.2292 0.8745c-0.01755 0.01056-0.03511 0.01752-0.05267 0.01752-0.01405 0-0.04209-0.0033-0.06668-0.02816l-1.0466-1.0465c-0.03161-0.03164-0.03515-0.08079-0.01056-0.11942l0.864-1.2116c0.10887-0.15453 0.11588-0.35825 0.02107-0.5198-0.27394-0.45656-0.48464-0.95171-0.6181-1.468-0.04916-0.17911-0.1967-0.31609-0.37932-0.3477l-1.4856-0.25284c-0.04565-7e-3 -0.07724-0.0457-0.07724-0.09137v-1.4785c0-0.04565 0.03158-0.08428 0.07724-0.0913l1.4645-0.24584c0.18614-0.03161 0.33716-0.16858 0.38282-0.3512 0.12994-0.51626 0.33011-1.015 0.60053-1.475 0.09482-0.16155 0.08424-0.36172-0.02462-0.51274l-0.87443-1.2292c-0.02458-0.03512-0.0211-0.08781 0.01045-0.11942l1.0466-1.0466c0.02459-0.02459 0.04919-0.02806 0.06675-0.02806 0.02108 0 0.03864 7e-3 0.05267 0.01755l1.2116 0.86393c0.15453 0.10887 0.35818 0.11588 0.51973 0.02107 0.45656-0.27394 0.95177-0.48464 1.468-0.6181 0.17911-0.04916 0.31609-0.1967 0.3477-0.37932l0.25284-1.4855c7e-3 -0.04565 0.04564-0.07731 0.0913-0.07731zm0.76564 3.8316c-2.0018 0-3.6279 1.626-3.6279 3.6278 0 2.0018 1.6261 3.6279 3.6279 3.6279 2.0018 0 3.6278-1.6261 3.6278-3.6279 0-2.0018-1.626-3.6278-3.6278-3.6278zm0 0.94823c1.4785 0 2.6796 1.2011 2.6796 2.6796 0 1.4785-1.2011 2.6797-2.6796 2.6797-1.4785 0-2.6797-1.2011-2.6797-2.6797 0-1.4785 1.2011-2.6796 2.6797-2.6796z" fill="#f14d34" stroke="#f14d34" stroke-width=".58682"/>
</svg>
