<svg fill="none" version="1.1" width="81" height="81" viewBox="0 0 81 81" xmlns="http://www.w3.org/2000/svg">
<path d="m3 59.82v4.18c0 2.7614 2.2386 5 5 5h39.319m29.681-24.111v-3.0689m-74 18v-39.82c0-2.7614 2.2386-5 5-5h6m-11 44.82h43.5m30.5-18v-21.82c0-2.7614-2.2386-5-5-5h-18.5" stroke="#f14d34" stroke-width="2.5"/>
<path d="m45 53h-26c-2.7614 0-5-2.2386-5-5v-36c0-2.7614 2.2386-5 5-5h29c2.7614 0 5 2.2386 5 5v33.5" stroke="#f14d34" stroke-width="2.5"/>
<path d="m30.25 20v-5c0-0.9665 0.7835-1.75 1.75-1.75h10c0.9665 0 1.75 0.7835 1.75 1.75v5c0 0.9665-0.80768 1.9649-1.75 1.75h-10c-0.9665 0-1.75-0.7835-1.75-1.75z" stroke="#f14d34" stroke-width="2.5"/>
<path d="m32 69v7h16v-7" stroke="#f14d34" stroke-width="2.5"/>
<path d="M57 76H23" stroke="#F14D34" stroke-width="2.5"/>
<path d="m18.5 14h7" stroke="#F14D34" stroke-width="3"/>
<path d="m18.5 19h4" stroke="#050c33" stroke-width="3"/>
<path d="m18.5 27h29.8" stroke="#f14d34" stroke-width="3"/>
<path d="m18.5 32h26" stroke="#f14d34" stroke-width="3"/>
<path d="m18.5 40h31" stroke="#f14d34" stroke-width="3"/>
<path d="m18.5 45h20" stroke="#f14d34" stroke-width="3"/>
<path d="m49.322 44.295c-2.5617 0-4.6613 2.0996-4.6613 4.6614v16.756c0 2.5617 2.0996 4.6613 4.6613 4.6613h26.457c2.5617 0 4.6616-2.0996 4.6616-4.6613v-16.756c0.0105-2.5722-2.0998-4.6614-4.6616-4.6614zm-0.0525 2.9186h26.972c0.9239 0 1.6903 0.75588 1.6903 1.6903v0.6406h-30.352v-0.6406c0-0.9239 0.75588-1.6903 1.6903-1.6903zm-1.6903 6.7718h30.352v11.79c0 0.9239-0.75588 1.6903-1.6903 1.6903h-26.972c-0.9239 0-1.6903-0.75588-1.6903-1.6903zm4.777 5.6169c-1.6693 0-3.0236 1.3544-3.0236 3.0238 0 1.6693 1.3542 3.0236 3.0236 3.0236 0.9134 0 1.7429-0.40942 2.2888-1.0603 0.55644 0.65093 1.3752 1.0603 2.2886 1.0603 1.6693 0 3.0238-1.3542 3.0238-3.0236 0-1.6693-1.3544-3.0238-3.0238-3.0238-0.9134 0-1.7427 0.40941-2.2886 1.0603-0.55644-0.65094-1.3754-1.0603-2.2888-1.0603z" fill="#050c33" stroke="#050c33" stroke-width=".10499"/>
</svg>
